<svg width="2.68em" height="1em" viewBox="0 0 1201 449" class="text-gray-930/60 text-[100px] w-full h-auto absolute top-0">
  <path fill="#F5F5F5" d="M838.242 349.223c-65.247 0-116.999-50.899-116.999-116.996H617.805c0 122.564 97.084 216.502 220.437 216.502 123.354 0 220.438-93.938 220.438-216.502H955.241c0 66.031-51.752 116.996-116.999 116.996Zm216.368-471.937v-81.163H911.341c-23.059-7.927-47.756-12.709-73.239-12.709-123.354 0-220.438 93.938-220.438 216.502 0 122.565 97.084 216.503 220.438 216.503 123.353 0 220.438-93.938 220.438-216.503 0-41.4-11.14-81.95-33.41-112.214l29.48-10.35v-.066ZM838.102 117.634c-65.247 0-116.999-51.752-116.999-118.57 0-66.817 51.752-116.996 116.999-116.996 65.247 0 117.785 50.965 117.785 117.783s-51.752 117.783-117.785 117.783ZM1201-203.859h-101.87v408.308H1201v-408.308ZM101.866-376.602H0v580.987h101.866v-580.987Zm260.306 160.016c-123.353 0-220.438 93.938-220.438 216.502 0 122.565 97.085 216.503 220.438 216.503S582.61 122.481 582.61-.084c0-122.564-97.085-216.502-220.438-216.502Zm0 334.285c-65.247 0-116.999-51.75-116.999-118.569 0-66.817 51.752-116.996 116.999-116.996 65.247 0 117.785 50.965 117.785 117.782 0 66.818-51.752 117.783-117.785 117.783Z">
    
  </path>
</svg>